<svg xmlns="http://www.w3.org/2000/svg" xmlns:xlink="http://www.w3.org/1999/xlink" width="930" height="2263" viewBox="0 0 930 2263"><svg width="33" height="33" viewBox="0 0 33 33" id="analytics" y="0"><title>Fill 204</title><path d="M29.305 22.232L15.754 17.62v-15c7.779-.039 14.889 6.682 14.889 14.571 0 2.058-.538 3.62-1.338 5.042zM15.254 30.62c-6.903 0-12.5-5.596-12.5-12.5 0-6.29 4.917-11.622 11-12.5v13.43l12.709 4.425c-1.691 4.273-6.546 7.145-11.21 7.145zm.5-30h-2v3c-7.28.79-13 7.026-13 14.5 0 8.008 6.492 14.5 14.5 14.5 5.906 0 10.979-3.537 13.238-8.603l2.262.603c1.093-1.795 2-4.343 2-7.429 0-9.152-7.995-16.57-17-16.57z" fill="#9B9B9B" fill-rule="evenodd"></path></svg><svg width="20" height="44" viewBox="0 0 20 44" id="arrow_position" y="33"><title>Fill 10</title><path d="M12.013 37.256V6.744l4.548 4.499c.786.8 2.06.8 2.85 0 .786-.78.786-2.04 0-2.84L11.524.565c-.42-.42-.977-.6-1.527-.56a1.937 1.937 0 0 0-1.525.56L.59 8.403c-.787.8-.787 2.06 0 2.84.786.8 2.06.8 2.85 0l4.545-4.499v30.512L3.44 32.757c-.788-.8-2.063-.8-2.85 0a2.004 2.004 0 0 0 0 2.84l7.884 7.838c.42.42.977.6 1.525.56.55.04 1.107-.14 1.527-.56l7.885-7.838c.787-.8.787-2.06 0-2.84-.788-.8-2.063-.8-2.85 0l-4.547 4.499z" fill="#BBB" fill-rule="evenodd"></path></svg><svg width="61" height="61" viewBox="0 0 61 61" id="automate-gray" y="77"><path fill="#9B9B9B" fill-rule="evenodd" d="M45.633 23.16c-2.07 0-3.75 1.68-3.75 3.75 0 2.07 1.68 3.75 3.75 3.75 2.07 0 3.75-1.68 3.75-3.75 0-2.07-1.68-3.75-3.75-3.75zm-15 26.25c-2.19 0-4.305-.256-6.337-.689l-8.828 5.306.119-8.698C8.82 41.26 4.383 34.533 4.383 26.91c0-12.425 11.753-22.5 26.25-22.5 14.498 0 26.25 10.075 26.25 22.5 0 12.428-11.752 22.5-26.25 22.5zm0-48.75c-16.567 0-30 11.754-30 26.25 0 8.285 4.397 15.663 11.25 20.472V60.66l13.142-7.974c1.82.3 3.69.474 5.608.474 16.568 0 30-11.752 30-26.25 0-14.495-13.432-26.25-30-26.25zm-15 22.5c-2.07 0-3.75 1.68-3.75 3.75 0 2.07 1.68 3.75 3.75 3.75 2.07 0 3.75-1.68 3.75-3.75 0-2.07-1.68-3.75-3.75-3.75zm15 0c-2.07 0-3.75 1.68-3.75 3.75 0 2.07 1.68 3.75 3.75 3.75 2.07 0 3.75-1.68 3.75-3.75 0-2.07-1.68-3.75-3.75-3.75z"></path></svg><svg width="74" height="54" viewBox="0 0 74 54" id="bookmark" y="138"><path fill="#51585E" fill-rule="evenodd" d="M74 0v53.578h-4.932l-10.925-7.753-10.572 7.753L37 45.825l-10.571 7.753-10.572-7.753-10.923 7.753H0V0z" opacity=".2"></path></svg><svg width="40" height="40" viewBox="0 0 40 40" id="calendar" y="192"><title>Buttons/Calendar</title><g transform="translate(.97 .742)" fill="#9B9B9B" fill-rule="evenodd"><path d="M34.995 37.053H3.43a2.061 2.061 0 0 1-2.059-2.058V14.41h35.681v20.585a2.061 2.061 0 0 1-2.058 2.058m0-33.622h-6.862V.686a.686.686 0 1 0-1.372 0v6.176a.686.686 0 1 0 1.372 0V4.803h6.862c1.135 0 2.058.924 2.058 2.059v6.175H1.373V6.862c0-1.135.923-2.059 2.058-2.059h5.49V3.431H3.43A3.435 3.435 0 0 0 0 6.86v28.134c0 1.892 1.54 3.43 3.43 3.43h31.565c1.892 0 3.43-1.538 3.43-3.43V6.862c0-1.892-1.538-3.431-3.43-3.431"></path><path d="M10.979 7.548c.38 0 .686-.307.686-.686V4.803h13.723V3.431H11.665V.686a.686.686 0 1 0-1.372 0v6.176c0 .38.306.686.686.686M10.567 21.409l.823 1.098 1.648-1.235v10.292h1.372V19.9l-1.098-.549zM23.21 24.062l-1.252-.03v-2.76h4.117v-1.373h-5.49v5.473l2.608.063a2.335 2.335 0 0 1 2.332 2.332 2.336 2.336 0 0 1-2.332 2.333c-.91 0-1.742-.534-2.12-1.36l-1.249.572a3.716 3.716 0 0 0 3.369 2.16 3.709 3.709 0 0 0 3.704-3.705c0-2.043-1.661-3.705-3.688-3.705"></path></g></svg><svg width="40" height="40" viewBox="0 0 40 40" id="clone" y="232"><title>Icons / Copy</title><g fill="none" fill-rule="evenodd"><path d="M34 24a2 2 0 0 1-2 2H16a2 2 0 0 1-2-2V8a2 2 0 0 1 2-2h16a2 2 0 0 1 2 2v16zM32 4H16a4 4 0 0 0-4 4v16a4 4 0 0 0 4 4h16a4 4 0 0 0 4-4V8a4 4 0 0 0-4-4zm-6 28a2 2 0 0 1-2 2H8a2 2 0 0 1-2-2V16a2 2 0 0 1 2-2h2v-2H8a4 4 0 0 0-4 4v16a4 4 0 0 0 4 4h16a4 4 0 0 0 4-4v-2h-2v2z" fill="#9B9B9B"></path></g></svg><svg width="21" height="21" viewBox="0 0 21 21" id="close-small-default" y="272"><path fill="#9B9B9B" d="M20.41 20.415c-.782.78-2.049.78-2.832 0l-7.08-7.08-7.08 7.08c-.782.78-2.05.78-2.832 0a2.012 2.012 0 0 1 0-2.84l7.08-7.08-7.08-7.08a2 2 0 0 1 0-2.83c.783-.78 2.05-.78 2.833 0l7.08 7.08 7.08-7.08c.782-.78 2.05-.78 2.831 0 .784.78.784 2.05 0 2.83l-7.08 7.08 7.08 7.08a2.01 2.01 0 0 1 0 2.84z" fill-rule="evenodd"></path></svg><svg width="21" height="21" viewBox="0 0 21 21" id="close-small-hover" y="293"><path fill="#13B6F2" d="M20.41 20.415c-.782.78-2.049.78-2.832 0l-7.08-7.08-7.08 7.08c-.782.78-2.05.78-2.832 0a2.012 2.012 0 0 1 0-2.84l7.08-7.08-7.08-7.08a2 2 0 0 1 0-2.83c.783-.78 2.05-.78 2.833 0l7.08 7.08 7.08-7.08c.782-.78 2.05-.78 2.831 0 .784.78.784 2.05 0 2.83l-7.08 7.08 7.08 7.08a2.01 2.01 0 0 1 0 2.84z" fill-rule="evenodd"></path></svg><svg width="40" height="40" viewBox="0 0 40 40" id="copy" y="314"><path fill="#9B9B9B" d="M34 24a2 2 0 0 1-2 2H16a2 2 0 0 1-2-2V8a2 2 0 0 1 2-2h16a2 2 0 0 1 2 2v16zM32 4H16a4 4 0 0 0-4 4v16a4 4 0 0 0 4 4h16a4 4 0 0 0 4-4V8a4 4 0 0 0-4-4zm-6 28a2 2 0 0 1-2 2H8a2 2 0 0 1-2-2V16a2 2 0 0 1 2-2h2v-2H8a4 4 0 0 0-4 4v16a4 4 0 0 0 4 4h16a4 4 0 0 0 4-4v-2h-2v2z" fill-rule="evenodd"></path></svg><svg width="40" height="40" viewBox="0 0 40 40" id="copy-dark" y="354"><title>169956F7-450B-4CFB-BC36-71D85C7717DC</title><g fill="none" fill-rule="evenodd"><path d="M34 24a2 2 0 0 1-2 2H16a2 2 0 0 1-2-2V8a2 2 0 0 1 2-2h16a2 2 0 0 1 2 2v16zM32 4H16a4 4 0 0 0-4 4v16a4 4 0 0 0 4 4h16a4 4 0 0 0 4-4V8a4 4 0 0 0-4-4zm-6 28a2 2 0 0 1-2 2H8a2 2 0 0 1-2-2V16a2 2 0 0 1 2-2h2v-2H8a4 4 0 0 0-4 4v16a4 4 0 0 0 4 4h16a4 4 0 0 0 4-4v-2h-2v2z" fill="#263C47"></path></g></svg><svg width="40" height="40" viewBox="0 0 40 40" id="crop-reverse" y="394"><defs><filter id="a" width="105.9%" height="145.5%" x="-2.9%" y="-18.2%" filterUnits="objectBoundingBox"><feOffset dy="2" in="SourceAlpha" result="shadowOffsetOuter1"></feOffset><feGaussianBlur in="shadowOffsetOuter1" result="shadowBlurOuter1" stdDeviation="2"></feGaussianBlur><feColorMatrix in="shadowBlurOuter1" result="shadowMatrixOuter1" values="0 0 0 0 0 0 0 0 0 0 0 0 0 0 0 0 0 0 0.5 0"></feColorMatrix><feMerge><feMergeNode in="shadowMatrixOuter1"></feMergeNode><feMergeNode in="SourceGraphic"></feMergeNode></feMerge></filter></defs><path fill="#FFF" fill-rule="evenodd" d="M28 26V9l-2 2v15H7.372L29.213 3.201l-1.414-1.414L6 24.542V6h14.021l1.84-2H6V1a1 1 0 1 0-2 0v3H1a1 1 0 1 0 0 2h3v22h22v3a1 1 0 1 0 2 0v-3h3a1 1 0 1 0 0-2h-3z" filter="url(#a)" transform="translate(4 2)"></path></svg><svg width="16" height="71" viewBox="0 0 16 71" id="drag" y="434"><title>Group</title><g fill="#9B9B9B" fill-rule="evenodd"><rect x="6" y="30.094" width="4" height="4" rx="1"></rect><rect x="12" y="30.094" width="4" height="4" rx="1"></rect><rect y="30.094" width="4" height="4" rx="1"></rect><rect x="6" y="24.094" width="4" height="4" rx="1"></rect><rect x="12" y="24.094" width="4" height="4" rx="1"></rect><rect y="24.094" width="4" height="4" rx="1"></rect><rect x="6" y="18.094" width="4" height="4" rx="1"></rect><rect x="12" y="18.094" width="4" height="4" rx="1"></rect><rect y="18.094" width="4" height="4" rx="1"></rect><rect x="6" y="12.094" width="4" height="4" rx="1"></rect><rect x="12" y="12.094" width="4" height="4" rx="1"></rect><rect y="12.094" width="4" height="4" rx="1"></rect><rect x="6" y="6.094" width="4" height="4" rx="1"></rect><rect x="12" y="6.094" width="4" height="4" rx="1"></rect><rect y="6.094" width="4" height="4" rx="1"></rect><rect x="6" y=".094" width="4" height="4" rx="1"></rect><rect x="12" y=".094" width="4" height="4" rx="1"></rect><rect y=".094" width="4" height="4" rx="1"></rect><rect x="6" y="66.094" width="4" height="4" rx="1"></rect><rect x="12" y="66.094" width="4" height="4" rx="1"></rect><rect y="66.094" width="4" height="4" rx="1"></rect><rect x="6" y="60.094" width="4" height="4" rx="1"></rect><rect x="12" y="60.094" width="4" height="4" rx="1"></rect><rect y="60.094" width="4" height="4" rx="1"></rect><rect x="6" y="54.094" width="4" height="4" rx="1"></rect><rect x="12" y="54.094" width="4" height="4" rx="1"></rect><rect y="54.094" width="4" height="4" rx="1"></rect><rect x="6" y="48.094" width="4" height="4" rx="1"></rect><rect x="12" y="48.094" width="4" height="4" rx="1"></rect><rect y="48.094" width="4" height="4" rx="1"></rect><rect x="6" y="42.094" width="4" height="4" rx="1"></rect><rect x="12" y="42.094" width="4" height="4" rx="1"></rect><rect y="42.094" width="4" height="4" rx="1"></rect><rect x="6" y="36.094" width="4" height="4" rx="1"></rect><rect x="12" y="36.094" width="4" height="4" rx="1"></rect><rect y="36.094" width="4" height="4" rx="1"></rect></g></svg><svg width="84" height="60" viewBox="0 0 84 60" id="drag-handle-large" y="505"><defs><rect id="a" width="78" height="60" rx="10"></rect></defs><g fill="none" fill-rule="evenodd"><use fill="#FFF" xlink:href="#a"></use><path d="M15 37h2a1 1 0 0 1 1 1v2a1 1 0 0 1-1 1h-2a1 1 0 0 1-1-1v-2a1 1 0 0 1 1-1zm6 0h2a1 1 0 0 1 1 1v2a1 1 0 0 1-1 1h-2a1 1 0 0 1-1-1v-2a1 1 0 0 1 1-1zM9 37h2a1 1 0 0 1 1 1v2a1 1 0 0 1-1 1H9a1 1 0 0 1-1-1v-2a1 1 0 0 1 1-1zm6 6h2a1 1 0 0 1 1 1v2a1 1 0 0 1-1 1h-2a1 1 0 0 1-1-1v-2a1 1 0 0 1 1-1zm6 0h2a1 1 0 0 1 1 1v2a1 1 0 0 1-1 1h-2a1 1 0 0 1-1-1v-2a1 1 0 0 1 1-1zM9 43h2a1 1 0 0 1 1 1v2a1 1 0 0 1-1 1H9a1 1 0 0 1-1-1v-2a1 1 0 0 1 1-1zm6 6h2a1 1 0 0 1 1 1v2a1 1 0 0 1-1 1h-2a1 1 0 0 1-1-1v-2a1 1 0 0 1 1-1zm6 0h2a1 1 0 0 1 1 1v2a1 1 0 0 1-1 1h-2a1 1 0 0 1-1-1v-2a1 1 0 0 1 1-1zM9 49h2a1 1 0 0 1 1 1v2a1 1 0 0 1-1 1H9a1 1 0 0 1-1-1v-2a1 1 0 0 1 1-1zm6-18h2a1 1 0 0 1 1 1v2a1 1 0 0 1-1 1h-2a1 1 0 0 1-1-1v-2a1 1 0 0 1 1-1zm6 0h2a1 1 0 0 1 1 1v2a1 1 0 0 1-1 1h-2a1 1 0 0 1-1-1v-2a1 1 0 0 1 1-1zM9 31h2a1 1 0 0 1 1 1v2a1 1 0 0 1-1 1H9a1 1 0 0 1-1-1v-2a1 1 0 0 1 1-1zm6-6h2a1 1 0 0 1 1 1v2a1 1 0 0 1-1 1h-2a1 1 0 0 1-1-1v-2a1 1 0 0 1 1-1zm6 0h2a1 1 0 0 1 1 1v2a1 1 0 0 1-1 1h-2a1 1 0 0 1-1-1v-2a1 1 0 0 1 1-1zM9 25h2a1 1 0 0 1 1 1v2a1 1 0 0 1-1 1H9a1 1 0 0 1-1-1v-2a1 1 0 0 1 1-1zm6-6h2a1 1 0 0 1 1 1v2a1 1 0 0 1-1 1h-2a1 1 0 0 1-1-1v-2a1 1 0 0 1 1-1zm6 0h2a1 1 0 0 1 1 1v2a1 1 0 0 1-1 1h-2a1 1 0 0 1-1-1v-2a1 1 0 0 1 1-1zM9 19h2a1 1 0 0 1 1 1v2a1 1 0 0 1-1 1H9a1 1 0 0 1-1-1v-2a1 1 0 0 1 1-1zm6-6h2a1 1 0 0 1 1 1v2a1 1 0 0 1-1 1h-2a1 1 0 0 1-1-1v-2a1 1 0 0 1 1-1zm6 0h2a1 1 0 0 1 1 1v2a1 1 0 0 1-1 1h-2a1 1 0 0 1-1-1v-2a1 1 0 0 1 1-1zM9 13h2a1 1 0 0 1 1 1v2a1 1 0 0 1-1 1H9a1 1 0 0 1-1-1v-2a1 1 0 0 1 1-1zm6-6h2a1 1 0 0 1 1 1v2a1 1 0 0 1-1 1h-2a1 1 0 0 1-1-1V8a1 1 0 0 1 1-1zm6 0h2a1 1 0 0 1 1 1v2a1 1 0 0 1-1 1h-2a1 1 0 0 1-1-1V8a1 1 0 0 1 1-1zM9 7h2a1 1 0 0 1 1 1v2a1 1 0 0 1-1 1H9a1 1 0 0 1-1-1V8a1 1 0 0 1 1-1z" fill="#9B9B9B"></path></g></svg><svg width="32" height="32" viewBox="0 0 32 32" id="dropdown-large" y="565"><path fill="#263C47" fill-rule="evenodd" d="M30 28c0 1.1-.896 2-2 2H4c-1.104 0-2-.9-2-2V4a2 2 0 0 1 2-2h24a2 2 0 0 1 2 2v24zM28 0H4a4 4 0 0 0-4 4v24a4 4 0 0 0 4 4h24a4 4 0 0 0 4-4V4a4 4 0 0 0-4-4zm-3.736 10.315l-8.28 8.305-8.279-8.305a1.004 1.004 0 0 0-1.423 0 1.015 1.015 0 0 0 0 1.429l8.941 8.976c.209.21.487.3.761.28.275.02.553-.07.762-.28l8.941-8.976a1.015 1.015 0 0 0 0-1.429 1.004 1.004 0 0 0-1.423 0z"></path></svg><svg width="32" height="32" viewBox="0 0 32 32" id="dropdown-large-white" y="597"><path fill="#FFF" fill-rule="evenodd" d="M30 28c0 1.1-.896 2-2 2H4c-1.104 0-2-.9-2-2V4a2 2 0 0 1 2-2h24a2 2 0 0 1 2 2v24zM28 0H4a4 4 0 0 0-4 4v24a4 4 0 0 0 4 4h24a4 4 0 0 0 4-4V4a4 4 0 0 0-4-4zm-3.736 10.315l-8.28 8.305-8.279-8.305a1.004 1.004 0 0 0-1.423 0 1.015 1.015 0 0 0 0 1.429l8.941 8.976c.209.21.487.3.761.28.275.02.553-.07.762-.28l8.941-8.976a1.015 1.015 0 0 0 0-1.429 1.004 1.004 0 0 0-1.423 0z"></path></svg><svg width="40" height="40" viewBox="0 0 40 40" id="edit" y="629"><path fill="#9B9B9B" d="M9.72 31.15c-.49.228-.93-.244-.701-.702l2.226-4.244 2.82 2.825L9.72 31.15zm17.336-14.429l-11.24 11.247a9352.095 9352.095 0 0 0-3.512-3.515l11.215-11.222 3.537 3.49zm1.406-7.029l2.107 2.108a.995.995 0 0 1 0 1.406l-2.107 2.109-3.463-3.566 2.057-2.057a.993.993 0 0 1 1.406 0zM6.09 32.782c-.361.981.423 1.859 1.403 1.404l8.699-4.303c.375-.073.739-.219 1.029-.509l15.455-15.466a1.988 1.988 0 0 0 0-2.811l-3.512-3.515a1.987 1.987 0 0 0-2.81 0L10.899 23.047c-.291.291-.435.655-.51 1.03l-4.3 8.705z" fill-rule="evenodd"></path></svg><svg width="20" height="14" viewBox="0 0 20 14" id="expander-down" y="669"><path fill="#263C47" d="M19.003 0H.997a1 1 0 0 0-.8 1.6l9.002 12.03a1 1 0 0 0 1.602 0L19.803 1.6a1 1 0 0 0-.8-1.6z" fill-rule="evenodd"></path></svg><svg width="14" height="20" viewBox="0 0 14 20" id="expander-right" y="683"><path fill="#263C47" d="M0 .997v18.006a1 1 0 0 0 1.6.8l12.03-9.002a1 1 0 0 0 0-1.602L1.6.197a1 1 0 0 0-1.6.8z" fill-rule="evenodd"></path></svg><svg height="24" width="24" id="fb" y="703"><g transform="translate(0 -1028.4)"><path d="M4 1031.4c-1.105 0-2 .9-2 2v16c0 1.1.895 2 2 2h16c1.105 0 2-.9 2-2v-16c0-1.1-.895-2-2-2H4z" fill="#30497b"></path><path d="M4 1030.4a2 2 0 0 0-2 2v16a2 2 0 0 0 2 2h16a2 2 0 0 0 2-2v-16a2 2 0 0 0-2-2H4z" fill="#3b5998"></path><path d="M17 1034.4c-2.209 0-4 1.8-4 4v3h-2v3h2v7h3v-7h2.454l.546-3h-3v-3c0-.6.448-1 1-1h2v-3z" fill="#30497b"></path><path d="M17 1033.4a4 4 0 0 0-4 4v3h-2v3h2v7h3v-7h2.454l.546-3h-3v-3a1 1 0 0 1 1-1h2v-3z" fill="#ecf0f1"></path><path fill="#bdc3c7" d="M13 1050.4h3v1h-3z"></path></g></svg><svg width="32" height="32" viewBox="0 0 32 32" id="image-white" y="727"><path fill="#fff" d="M8 10a2 2 0 1 1 .001-4.001A2 2 0 0 1 8 10zm0-6a4 4 0 1 0 0 8 4 4 0 0 0 0-8zm22 13.128L24 11l-9.941 10.111L10 17l-8 7.337V4a2 2 0 0 1 2-2h24a2 2 0 0 1 2 2v13.128zM30 28a2 2 0 0 1-2 2h-5.168l-7.368-7.465L24 13.999l6 6V28zM4 30a2 2 0 0 1-2-2v-.939l7.945-7.116L20.001 30H4zM28 0H4a4 4 0 0 0-4 4v24a4 4 0 0 0 4 4h24a4 4 0 0 0 4-4V4a4 4 0 0 0-4-4z" fill-rule="evenodd"></path></svg><svg width="50" height="50" viewBox="0 0 50 50" id="json-active" y="759"><g fill="none" fill-rule="evenodd"><rect width="50" height="50" fill="#263C47" rx="5"></rect><text fill="#FFF" font-family="HelveticaNeue-Bold, Helvetica Neue" font-size="14" font-weight="bold" letter-spacing="-.467"><tspan x="6.865" y="29">JSON</tspan></text></g></svg><svg width="53" height="54" viewBox="0 0 53 54" id="plus-large-default" y="809"><g fill="none" fill-rule="evenodd" transform="translate(0 .664)"><circle cx="26.5" cy="26.5" r="26.5" fill="#EFEBE9"></circle><path fill="#9B9B9B" d="M29 25V15a2 2 0 1 0-4 0v10H15a2 2 0 1 0 0 4h10v10a2 2 0 1 0 4 0V29h10a2 2 0 1 0 0-4H29z"></path></g></svg><svg width="53" height="53" viewBox="0 0 53 53" id="plus-large-hover" y="863"><g fill="none" fill-rule="evenodd"><circle cx="26.5" cy="26.5" r="26.5" fill="#13B6F2"></circle><path fill="#FFF" d="M28.463 24.537v-9.815a1.963 1.963 0 1 0-3.926 0v9.815h-9.815a1.963 1.963 0 1 0 0 3.926h9.815v9.815a1.963 1.963 0 1 0 3.926 0v-9.815h9.815a1.963 1.963 0 1 0 0-3.926h-9.815z"></path></g></svg><svg width="40" height="40" viewBox="0 0 40 40" id="question-mark" y="916"><g fill="#9B9B9B" fill-rule="evenodd"><path d="M20 34c-7.732 0-14-6.27-14-14S12.268 6 20 6s14 6.27 14 14-6.268 14-14 14zm0-30C11.163 4 4 11.16 4 20s7.163 16 16 16 16-7.16 16-16S28.837 4 20 4z"></path><path d="M19.941 24.87h.216c.702 0 1.08-.378 1.08-1.08v-.675c0-1.134.81-1.836 1.539-2.457.729-.621 1.836-1.296 1.836-3.672v-2.214c0-2.808-1.566-3.888-4.428-3.888h-.054c-2.862 0-4.428 1.08-4.428 3.888v1.998c0 .702.378 1.08 1.08 1.08h.81c.702 0 1.08-.378 1.08-1.08v-1.674c0-1.296.567-1.62 1.431-1.62.864 0 1.485.324 1.485 1.62v1.836c0 .891-.648 1.566-1.107 1.998-1.134 1.08-1.62 2.106-1.62 3.429v1.431c0 .702.378 1.08 1.08 1.08zm.567 1.62h-.918c-.702 0-1.08.378-1.08 1.08v1.35c0 .702.378 1.08 1.08 1.08h.918c.702 0 1.08-.378 1.08-1.08v-1.35c0-.702-.378-1.08-1.08-1.08z"></path></g></svg><svg width="32" height="32" viewBox="0 0 32 32" id="refresh" y="956"><g fill="none" fill-rule="evenodd"><g fill="#424242"><path d="M-4.945 16c0-12.131 9.869-22 22-22A21.97 21.97 0 0 1 36.653 6h-9.598a1 1 0 1 0 0 2h13V-5a1 1 0 1 0-2 0v9.4a23.96 23.96 0 0 0-21-12.4c-13.233 0-24 10.767-24 24a1 1 0 1 0 2 0m45-1a1 1 0 0 0-1 1c0 12.131-9.87 22-22 22A21.97 21.97 0 0 1-2.543 26h9.598a1 1 0 1 0 0-2h-13v13a1 1 0 1 0 2 0v-9.4a23.96 23.96 0 0 0 21 12.4c13.233 0 24-10.767 24-24a1 1 0 0 0-1-1"></path><path d="M-4.945 16c0-12.131 9.869-22 22-22A21.97 21.97 0 0 1 36.653 6h-9.598a1 1 0 1 0 0 2h13V-5a1 1 0 1 0-2 0v9.4a23.96 23.96 0 0 0-21-12.4c-13.233 0-24 10.767-24 24a1 1 0 1 0 2 0m45-1a1 1 0 0 0-1 1c0 12.131-9.87 22-22 22A21.97 21.97 0 0 1-2.543 26h9.598a1 1 0 1 0 0-2h-13v13a1 1 0 1 0 2 0v-9.4a23.96 23.96 0 0 0 21 12.4c13.233 0 24-10.767 24-24a1 1 0 0 0-1-1"></path></g><path d="M4.47 16C4.47 9.642 9.641 4.47 16 4.47c4.363 0 8.31 2.443 10.272 6.289h-5.03a.524.524 0 1 0 0 1.048h6.813V4.993a.524.524 0 1 0-1.048 0V9.92A12.559 12.559 0 0 0 16 3.42C9.064 3.42 3.42 9.065 3.42 16a.524.524 0 1 0 1.05 0m23.585-.524a.524.524 0 0 0-.524.524c0 6.358-5.173 11.53-11.531 11.53-4.363 0-8.31-2.443-10.272-6.289h5.03a.524.524 0 1 0 0-1.048H3.946v6.814a.524.524 0 1 0 1.048 0V22.08A12.559 12.559 0 0 0 16 28.58c6.936 0 12.58-5.644 12.58-12.58a.524.524 0 0 0-.525-.524" fill="#979797" stroke="#979797" stroke-width=".8"></path></g></svg><svg width="61" height="61" viewBox="0 0 61 61" id="settings-gray" y="988"><path fill="#9B9B9B" fill-rule="evenodd" d="M56.981 53.16c0 2.07-1.68 3.75-3.75 3.75h-45c-2.07 0-3.75-1.68-3.75-3.75v-45c0-2.07 1.68-3.75 3.75-3.75h45c2.07 0 3.75 1.68 3.75 3.75v45zM53.231.66h-45a7.5 7.5 0 0 0-7.5 7.5v45a7.5 7.5 0 0 0 7.5 7.5h45a7.5 7.5 0 0 0 7.5-7.5v-45a7.5 7.5 0 0 0-7.5-7.5zm-15 36.374a4.5 4.5 0 1 1 0-9 4.5 4.5 0 0 1 0 9zm11.25-6.375h-4.016c-.834-3.23-3.742-5.625-7.234-5.625-3.49 0-6.397 2.395-7.233 5.625H11.98a1.876 1.876 0 0 0 0 3.75h19.017c.834 3.23 3.742 5.625 7.233 5.625 3.492 0 6.4-2.394 7.234-5.625h4.016a1.874 1.874 0 1 0 0-3.75zm-28.125-8.625a4.5 4.5 0 1 1 0-9 4.5 4.5 0 0 1 0 9zm28.125-6.375h-20.89c-.835-3.23-3.743-5.625-7.235-5.625-3.49 0-6.399 2.395-7.233 5.625H11.98a1.876 1.876 0 0 0 0 3.75h2.142c.834 3.23 3.742 5.625 7.233 5.625 3.492 0 6.4-2.394 7.234-5.625H49.48a1.874 1.874 0 1 0 0-3.75zM21.356 52.034a4.5 4.5 0 1 1 0-9 4.5 4.5 0 0 1 0 9zm28.125-6.375h-20.89c-.835-3.229-3.743-5.625-7.235-5.625-3.49 0-6.399 2.396-7.233 5.625H11.98a1.874 1.874 0 1 0 0 3.75h2.142c.834 3.23 3.742 5.625 7.233 5.625 3.492 0 6.4-2.394 7.234-5.625H49.48a1.874 1.874 0 1 0 0-3.75z"></path></svg><svg width="24" height="24" viewBox="0 0 24 24" id="status-dot-active" y="1049"><circle cx="12" cy="12" r="12" fill="#7ED321" fill-rule="evenodd"></circle></svg><svg viewBox="0 0 40 40" width="40" height="40" id="trash" y="1073"><path fill="#9B9B9B" d="M30 12H10a1 1 0 1 1 0-2h20a1 1 0 0 1 0 2zm-1 20a2 2 0 0 1-2 2H13a2 2 0 0 1-2-2V14h18v18zM17 7a1 1 0 0 1 1-1h4a1 1 0 0 1 1 1v1h-6V7zm14 1h-6V6a2 2 0 0 0-2-2h-6a2 2 0 0 0-2 2v2H9a2 2 0 0 0-2 2v2a2 2 0 0 0 2 2v18a4 4 0 0 0 4 4h14a4 4 0 0 0 4-4V14a2 2 0 0 0 2-2v-2a2 2 0 0 0-2-2zM20 32a1 1 0 0 0 1-1V19a1 1 0 0 0-2 0v12a1 1 0 0 0 1 1zm-5 0a1 1 0 0 0 1-1V19a1 1 0 0 0-2 0v12a1 1 0 0 0 1 1zm10 0a1 1 0 0 0 1-1V19a1 1 0 0 0-2 0v12a1 1 0 0 0 1 1z" fill-rule="evenodd"></path></svg><svg viewBox="0 0 40 40" width="40" height="40" id="trash-hover" y="1113"><path fill="#000" d="M30 12H10a1 1 0 1 1 0-2h20a1 1 0 0 1 0 2zm-1 20a2 2 0 0 1-2 2H13a2 2 0 0 1-2-2V14h18v18zM17 7a1 1 0 0 1 1-1h4a1 1 0 0 1 1 1v1h-6V7zm14 1h-6V6a2 2 0 0 0-2-2h-6a2 2 0 0 0-2 2v2H9a2 2 0 0 0-2 2v2a2 2 0 0 0 2 2v18a4 4 0 0 0 4 4h14a4 4 0 0 0 4-4V14a2 2 0 0 0 2-2v-2a2 2 0 0 0-2-2zM20 32a1 1 0 0 0 1-1V19a1 1 0 0 0-2 0v12a1 1 0 0 0 1 1zm-5 0a1 1 0 0 0 1-1V19a1 1 0 0 0-2 0v12a1 1 0 0 0 1 1zm10 0a1 1 0 0 0 1-1V19a1 1 0 0 0-2 0v12a1 1 0 0 0 1 1z" fill-rule="evenodd"></path></svg><svg viewBox="0 0 40 40" width="40" height="40" id="trash-white" y="1153"><path fill="#fff" d="M30 12H10a1 1 0 1 1 0-2h20a1 1 0 0 1 0 2zm-1 20a2 2 0 0 1-2 2H13a2 2 0 0 1-2-2V14h18v18zM17 7a1 1 0 0 1 1-1h4a1 1 0 0 1 1 1v1h-6V7zm14 1h-6V6a2 2 0 0 0-2-2h-6a2 2 0 0 0-2 2v2H9a2 2 0 0 0-2 2v2a2 2 0 0 0 2 2v18a4 4 0 0 0 4 4h14a4 4 0 0 0 4-4V14a2 2 0 0 0 2-2v-2a2 2 0 0 0-2-2zM20 32a1 1 0 0 0 1-1V19a1 1 0 0 0-2 0v12a1 1 0 0 0 1 1zm-5 0a1 1 0 0 0 1-1V19a1 1 0 0 0-2 0v12a1 1 0 0 0 1 1zm10 0a1 1 0 0 0 1-1V19a1 1 0 0 0-2 0v12a1 1 0 0 0 1 1z" fill-rule="evenodd"></path></svg><svg width="38" height="32" viewBox="0 0 38 32" id="users" y="1193"><title>2E4E8725-C535-4FF2-B66A-CCBE976B404D</title><defs><path d="M2.017 9.201C2.017 4.121 5.725 0 10.298 0c4.574 0 8.282 4.12 8.282 9.201 0 2.22-.709 4.256-1.885 5.846 2.162.747 3.725 2.779 3.725 5.196v3.68a5.522 5.522 0 0 1-5.52 5.522H5.698a5.52 5.52 0 0 1-5.52-5.521v-3.68c0-2.418 1.563-4.45 3.724-5.197-1.177-1.59-1.885-3.626-1.885-5.846zm1.84 0c0 4.066 2.884 7.362 6.441 7.362 3.558 0 6.442-3.296 6.442-7.362 0-4.065-2.884-7.36-6.442-7.36-3.557 0-6.44 3.295-6.44 7.36zm11.249 7.483c-1.356 1.078-3.013 1.719-4.808 1.719-1.794 0-3.45-.641-4.807-1.719-1.989.434-3.474 2.063-3.474 4.02v2.76c0 2.287 2.022 4.14 4.518 4.14h7.528c2.494 0 4.517-1.853 4.517-4.14v-2.76c0-1.957-1.485-3.586-3.474-4.02z" id="a"></path><path id="c" d="M0 .25v24.23h10.588V.25z"></path></defs><g transform="translate(.388 1.885)" fill="none" fill-rule="evenodd"><path d="M26.861 23.464c0 2.286-2.022 4.14-4.517 4.14h-7.528c-2.495 0-4.517-1.854-4.517-4.14v-2.76c0-1.957 1.484-3.586 3.472-4.019 1.358 1.077 3.015 1.718 4.809 1.718s3.45-.64 4.808-1.718c1.989.433 3.473 2.062 3.473 4.018v2.76zM12.14 9.2c0-4.065 2.884-7.36 6.44-7.36 3.558 0 6.442 3.295 6.442 7.36 0 4.066-2.884 7.362-6.441 7.362s-6.441-3.296-6.441-7.362zm12.837 5.846c1.176-1.59 1.885-3.626 1.885-5.846C26.861 4.121 23.154 0 18.58 0c-4.574 0-8.281 4.12-8.281 9.201 0 2.22.708 4.256 1.885 5.846-2.162.747-3.726 2.779-3.726 5.196v3.68a5.522 5.522 0 0 0 5.521 5.522h9.202a5.522 5.522 0 0 0 5.52-5.521v-3.68c0-2.418-1.563-4.45-3.725-5.197z" fill="#403F41"></path><g transform="translate(8.281)"><mask id="b" fill="#fff"><use xlink:href="#a"></use></mask><path fill="#403F41" mask="url(#b)" d="M-5.344 34.965H25.94V-5.52H-5.344z"></path><path fill="#2D3C47" mask="url(#b)" d="M-4.424 34.045H25.02V-4.6H-4.424z"></path></g><g transform="translate(0 2.76)"><path d="M34.317 12.497c.881-1.318 1.362-2.926 1.362-4.572 0-4.231-3.11-7.675-6.934-7.675-.602 0-1.218.094-1.83.28l-.343.103.187.305c.23.375.447.802.664 1.305l.091.214.227-.054c.332-.08.67-.121 1.004-.121 2.704 0 4.903 2.532 4.903 5.643 0 2.935-1.913 5.35-4.45 5.618l-.465.049.27.383c.29.415.527.856.704 1.312l.084.22.23-.048a6.56 6.56 0 0 0 2.656-1.217c1.45.368 2.451 1.558 2.451 2.933v2.219c0 1.684-1.506 3.053-3.356 3.053h-1.784l-.052.21a6.039 6.039 0 0 1-.541 1.415l-.22.407h3.27a4.72 4.72 0 0 0 4.715-4.715v-2.96a4.708 4.708 0 0 0-2.843-4.307" fill="#2D3C47"></path><mask id="d" fill="#fff"><use xlink:href="#c"></use></mask><path d="M10.246.53A6.344 6.344 0 0 0 8.415.25C4.59.25 1.479 3.694 1.479 7.927c0 1.644.482 3.253 1.363 4.57A4.707 4.707 0 0 0 0 16.804v2.96a4.72 4.72 0 0 0 4.715 4.715h3.268l-.218-.406a6.121 6.121 0 0 1-.542-1.417l-.052-.208H5.387c-1.85 0-3.356-1.37-3.356-3.054v-2.22c0-1.374 1.002-2.564 2.452-2.932a6.544 6.544 0 0 0 2.656 1.216l.23.048.084-.218c.178-.46.415-.9.704-1.312l.27-.384-.466-.05c-2.537-.267-4.45-2.683-4.45-5.616 0-3.112 2.2-5.643 4.904-5.643.334 0 .672.04 1.004.12l.227.054.09-.214c.215-.498.431-.925.665-1.305l.187-.305-.342-.103z" fill="#323C47" mask="url(#d)"></path></g></g></svg><svg width="38" height="32" viewBox="0 0 38 32" id="users-add" y="1225"><defs><path id="a" d="M2.017 9.201C2.017 4.121 5.725 0 10.298 0c4.574 0 8.282 4.12 8.282 9.201 0 2.22-.709 4.256-1.885 5.846 2.162.747 3.725 2.779 3.725 5.196v3.68a5.522 5.522 0 0 1-5.52 5.522H5.698a5.52 5.52 0 0 1-5.52-5.521v-3.68c0-2.418 1.563-4.45 3.724-5.197-1.177-1.59-1.885-3.626-1.885-5.846zm1.84 0c0 4.066 2.884 7.362 6.441 7.362 3.558 0 6.442-3.296 6.442-7.362 0-4.065-2.884-7.36-6.442-7.36-3.557 0-6.44 3.295-6.44 7.36zm11.249 7.483c-1.356 1.078-3.013 1.719-4.808 1.719-1.794 0-3.45-.641-4.807-1.719-1.989.434-3.474 2.063-3.474 4.02v2.76c0 2.287 2.022 4.14 4.518 4.14h7.528c2.494 0 4.517-1.853 4.517-4.14v-2.76c0-1.957-1.485-3.586-3.474-4.02z"></path><path id="c" d="M0 .25v24.23h10.588V.25z"></path></defs><g fill="none" fill-rule="evenodd"><path fill="#979797" d="M27.249 25.35c0 2.286-2.022 4.14-4.517 4.14h-7.529c-2.494 0-4.517-1.854-4.517-4.14v-2.761c0-1.957 1.485-3.585 3.473-4.019 1.358 1.078 3.014 1.718 4.809 1.718 1.794 0 3.45-.64 4.807-1.718 1.99.434 3.474 2.062 3.474 4.019v2.76zM12.527 11.086c0-4.065 2.883-7.361 6.44-7.361 3.558 0 6.442 3.296 6.442 7.36 0 4.066-2.884 7.362-6.441 7.362-3.558 0-6.441-3.296-6.441-7.361zm12.837 5.846c1.176-1.59 1.885-3.627 1.885-5.846 0-5.081-3.707-9.202-8.281-9.202-4.574 0-8.282 4.12-8.282 9.202 0 2.22.709 4.256 1.886 5.846-2.163.747-3.726 2.778-3.726 5.196v3.68a5.522 5.522 0 0 0 5.521 5.521h9.201a5.522 5.522 0 0 0 5.521-5.52v-3.681c0-2.418-1.563-4.45-3.725-5.196z"></path><g transform="translate(8.67 1.885)"><mask id="b" fill="#fff"><use xlink:href="#a"></use></mask><use fill="#D8D8D8" xlink:href="#a"></use><path fill="#979797" d="M-5.344 34.965H25.94V-5.52H-5.344z" mask="url(#b)"></path></g><path fill="#979797" d="M34.705 17.142c.881-1.317 1.362-2.926 1.362-4.57 0-4.233-3.11-7.676-6.934-7.676a6.31 6.31 0 0 0-1.831.28l-.342.103.186.305c.23.375.448.802.665 1.305l.09.214.228-.055c.331-.08.67-.12 1.004-.12 2.703 0 4.903 2.532 4.903 5.643 0 2.934-1.913 5.349-4.45 5.618l-.465.048.27.384c.29.415.527.856.704 1.312l.084.22.23-.049a6.56 6.56 0 0 0 2.656-1.216c1.449.368 2.451 1.558 2.451 2.932v2.22c0 1.684-1.506 3.053-3.357 3.053h-1.783l-.052.21a6.039 6.039 0 0 1-.541 1.415l-.22.407h3.27a4.72 4.72 0 0 0 4.715-4.715v-2.96a4.708 4.708 0 0 0-2.843-4.308"></path><g transform="translate(.388 4.646)"><mask id="d" fill="#fff"><use xlink:href="#c"></use></mask><path fill="#979797" d="M10.246.53A6.344 6.344 0 0 0 8.415.25C4.59.25 1.479 3.694 1.479 7.927c0 1.644.482 3.253 1.363 4.57A4.707 4.707 0 0 0 0 16.804v2.96a4.72 4.72 0 0 0 4.715 4.715h3.268l-.218-.406a6.121 6.121 0 0 1-.542-1.417l-.052-.208H5.387c-1.85 0-3.356-1.37-3.356-3.054v-2.22c0-1.374 1.002-2.564 2.452-2.932a6.544 6.544 0 0 0 2.656 1.216l.23.048.084-.218c.178-.46.415-.9.704-1.312l.27-.384-.466-.05c-2.537-.267-4.45-2.683-4.45-5.616 0-3.112 2.2-5.643 4.904-5.643.334 0 .672.04 1.004.12l.227.054.09-.214c.215-.498.431-.925.665-1.305l.187-.305-.342-.103z" mask="url(#d)"></path></g><path fill="#FFF" d="M22 4.884h16v5H22z"></path><path fill="#979797" d="M29.032 1.384h2.2v12h-2.2z"></path><path fill="#979797" d="M36.132 6.284v2.2h-12v-2.2z"></path></g></svg><svg width="61" height="61" viewBox="0 0 61 61" id="versions-gray" y="1257"><path fill="#9B9B9B" fill-rule="evenodd" d="M57.169 30.66c0 1.655-1.344 3-3 3h-24c-1.656 0-3-1.345-3-3v-24a3 3 0 0 1 3-3h24a3 3 0 0 1 3 3v24zm-3-30h-24a6 6 0 0 0-6 6v24a6 6 0 0 0 6 6h24a6 6 0 0 0 6-6v-24a6 6 0 0 0-6-6zm-9 42c0 1.655-1.344 3-3 3h-24c-1.656 0-3-1.345-3-3v-24a3 3 0 0 1 3-3h3v-3h-3a6 6 0 0 0-6 6v24a6 6 0 0 0 6 6h24a6 6 0 0 0 6-6v-3h-3v3zm-12 12c0 1.655-1.344 3-3 3h-24c-1.656 0-3-1.345-3-3v-24a3 3 0 0 1 3-3h3v-3h-3a6 6 0 0 0-6 6v24a6 6 0 0 0 6 6h24a6 6 0 0 0 6-6v-3h-3v3z"></path></svg><svg width="930" height="945" viewBox="0 0 930 945" id="white" y="1318"><g fill="#FFF" fill-rule="evenodd"><path d="M531.79 72.647c-18.634-9.039-26.416-31.474-17.38-50.112 9.04-18.638 31.475-26.422 50.113-17.382 18.64 9.04 26.42 31.48 17.382 50.114-9.04 18.638-31.474 26.42-50.114 17.38zm-58.324 81.518l44.865-92.514a37.349 37.349 0 0 0 13.46 10.996 37.398 37.398 0 0 0 14.298 3.712l-41.001 84.542c-9.921-3.394-20.536-5.7-31.622-6.736zm-13.4-.622c57.213 0 104.82 33.655 114.874 78.094-43.058-2.82-86.208-4.243-114.875-4.243-28.624 0-71.749 1.137-114.773 3.807 10.266-44.223 57.75-77.658 114.775-77.658zM353.339 804.64L230.477 924.141V789.854c-63.272-13.737-103.145-52.963-117.236-114.76-10.124-44.387-10.124-96.43-10.124-154.24 0-57.31 0-108.443 10.124-152.754 14.115-61.784 53.366-100.708 117.236-114.757 56.209-12.367 172.122-16.949 229.588-16.949 57.467 0 173.14 5.716 229.589 16.95 70.613 14.048 105.099 52.555 117.24 114.756 10.122 51.857 10.122 98.157 10.122 159.061 0 76.53 0 103.546-10.121 147.933-14.094 61.797-53.814 101.725-117.241 114.76-82.088 16.87-172.185 16.87-229.59 16.87-28.594 0-66.388 0-106.726-2.085zM576.83 403.134c-6.905 0-13.686 1.92-19.688 5.639-8.534 5.285-14.501 13.562-16.802 23.327-2.284 9.764-.655 19.838 4.638 28.372 10.889 17.608 34.047 23.079 51.699 12.155 8.517-5.276 14.483-13.554 16.785-23.318 2.284-9.764.655-19.84-4.639-28.372-5.276-8.525-13.562-14.492-23.335-16.785a37.41 37.41 0 0 0-8.658-1.018zm.142 85.835c-16.183 0-32.011-8.11-41.129-22.85-6.782-10.967-8.906-23.92-5.949-36.472 2.956-12.552 10.623-23.211 21.582-29.992 10.96-6.781 23.884-8.923 36.473-5.95 12.553 2.949 23.211 10.615 30.01 21.584 6.781 10.968 8.906 23.919 5.949 36.472-2.957 12.553-10.623 23.212-21.583 29.993-7.914 4.886-16.678 7.215-25.353 7.215zm-73.282 31l2.284 3.427c4.338 3.674 9.862 7.746 15.598 11.19l2.621 1.576.814 3.523-.089 25.407a6.064 6.064 0 0 0 4.692 5.94l31.498 7.41c2.833.69 5.577-.673 6.834-3.223l12.252-24.796 5.931-.16a110.762 110.762 0 0 0 19.919-3.24l2.974-.77 19.104 19.166a6.075 6.075 0 0 0 7.489.886l27.496-17.024c2.426-1.505 3.488-4.426 2.567-7.117l-8.409-24.832 4.514-4.86c4.303-4.957 8.286-10.525 11.703-16.404l1.559-2.673 3.523-.78 22.733.072h.018a6.06 6.06 0 0 0 5.913-4.692l7.419-31.515a6.029 6.029 0 0 0-3.222-6.826l-22.929-11.358-.318-7.011c-.585-6.8-1.788-13.553-3.559-19.865l-.85-3.036 1.983-3.125 15.846-15.776c2.019-2 2.39-5.09.886-7.507l-17.015-27.505a6.077 6.077 0 0 0-7.118-2.558l-24.557 8.277-5.294-4.594c-5.276-4.294-10.569-7.923-16.023-10.978l-2.744-1.54-.885-3.594.053-23.176a6.08 6.08 0 0 0-4.692-5.931l-31.515-7.42c-2.851-.618-5.577.683-6.834 3.224l-12.376 25.044-3.718-.39c-5.666.425-12.164 1.487-18.697 3.152l-5.825 1.646-19.564-19.644a6.022 6.022 0 0 0-7.489-.885l-27.497 17.023a6.085 6.085 0 0 0-2.585 7.127l9.172 27.036-5.347 6.409a95.648 95.648 0 0 0-6.994 10.118l-3.505 5.967-28.931-.071a6.065 6.065 0 0 0-5.931 4.692l-7.418 31.515c-.655 2.762.672 5.577 3.24 6.843l26.239 12.969.177 3.099c.389 6.276 1.328 12.358 2.921 18.89l1.186 4.596-20.715 20.608a6.034 6.034 0 0 0-.885 7.507l17.015 27.496c1.452 2.382 4.497 3.47 7.1 2.568l28.257-9.526zm58.87 69.379c-1.293 0-2.603-.15-3.913-.46l-31.498-7.41c-7.666-1.806-12.995-8.56-12.96-16.421l.071-22.397c-5.135-3.232-9.702-6.578-13.987-10.207l-21.406 7.206c-7.418 2.522-15.509-.381-19.67-7.083l-17.015-27.496c-4.125-6.683-3.116-15.217 2.444-20.768l16.377-16.28c-1.328-5.718-2.213-11.11-2.674-16.412l-20.706-10.243c-7.055-3.488-10.72-11.27-8.914-18.918l7.418-31.515a16.759 16.759 0 0 1 16.377-12.96h.036l22.769.053.407-.691a107.877 107.877 0 0 1 7.879-11.411l1.575-1.894-7.223-21.344c-2.514-7.462.407-15.554 7.082-19.688l27.496-17.023c6.71-4.134 15.191-3.152 20.768 2.425l15.102 15.183c6.304-1.594 12.483-2.683 18.502-3.258l9.331-18.9c3.47-7.047 11.243-10.677 18.909-8.924l31.515 7.419c7.649 1.797 12.978 8.534 12.978 16.386l-.053 20.06c5.807 3.39 10.783 6.887 15.829 11.003l.796.682 18.715-6.312c7.453-2.532 15.527.416 19.67 7.056l17.032 27.522c4.126 6.684 3.116 15.218-2.443 20.769l-13.651 13.579a120.842 120.842 0 0 1 3.364 19.9l.036.904 17.262 8.552c7.047 3.47 10.712 11.25 8.906 18.909l-7.418 31.515c-1.806 7.64-8.517 12.96-16.36 12.96h-.053l-19.671-.062c-3.735 6.153-7.595 11.42-11.827 16.289l-.283.31 6.356 18.767c2.532 7.436-.372 15.536-7.064 19.679l-27.514 17.033a16.76 16.76 0 0 1-20.75-2.435l-14.784-14.845a122.763 122.763 0 0 1-18.768 2.806l-9.383 19.015c-2.886 5.852-8.729 9.375-15.014 9.375zM314.6 448.858c-.479 0-.957.017-1.435.043-6.162.372-11.8 3.116-15.89 7.737-4.09 4.613-6.135 10.544-5.764 16.696.372 6.162 3.117 11.801 7.738 15.891 4.612 4.098 10.596 6.117 16.704 5.772 12.704-.77 22.424-11.739 21.654-24.442-.372-6.162-3.125-11.8-7.737-15.89-4.258-3.772-9.632-5.808-15.27-5.808zm-.054 56.912c-17.732 0-32.666-13.854-33.746-31.78-.549-9.02 2.452-17.715 8.445-24.469 5.985-6.763 14.253-10.79 23.265-11.33 9.047-.63 17.705 2.442 24.468 8.435 6.764 5.993 10.792 14.253 11.34 23.274 1.125 18.617-13.1 34.675-31.709 35.808-.69.045-1.38.062-2.063.062zm-32.702 29.152l4.48 2.266a73.22 73.22 0 0 0 12.27 4.24l2.983.735 5.418 18.166c.292.991 1.328 1.584 2.266 1.584l21.397-1.292a2.207 2.207 0 0 0 2.062-1.859l3.072-18.183 5.161-1.77c3.913-1.479 7.88-3.427 11.641-5.737l2.638-1.62 3.223 1.15 13.252 7.19a2.178 2.178 0 0 0 2.727-.488l14.226-16.059c.681-.76.743-1.93.15-2.762l-10.446-14.713 2.505-5.152c1.71-3.984 3.09-8.197 4.011-12.305l.69-3.08 3.161-1.506 14.208-4.222a2.224 2.224 0 0 0 1.584-2.276l-1.292-21.396a2.206 2.206 0 0 0-1.85-2.054l-17.962-3.063-2-5.32c-1.647-3.949-3.604-7.738-5.746-11.102l-1.7-2.664 1.133-3.31 7.304-13.519a2.202 2.202 0 0 0-.478-2.718l-16.068-14.235a2.223 2.223 0 0 0-2.779-.14l-15.953 11.348-3.027-1.877c-3.267-1.46-7.295-2.842-11.526-3.895l-4.922-1.107-5.542-18.617c-.292-.99-1.054-1.558-2.266-1.584l-21.397 1.292a2.207 2.207 0 0 0-2.054 1.842l-3.337 19.661-6.047 2.443a60.418 60.418 0 0 0-7.02 3.586l-4.807 2.921-17.776-9.63a2.23 2.23 0 0 0-2.717.485l-14.235 16.068a2.237 2.237 0 0 0-.15 2.762l11.835 16.643-1.257 2.806c-1.726 3.727-3.054 7.472-4.16 11.685l-.77 2.922-3.17 2-16.616 4.931a2.212 2.212 0 0 0-1.585 2.267l1.301 21.396a2.225 2.225 0 0 0 1.842 2.063l21.264 3.612v3.647c1.504 3.94 3.284 7.657 5.32 11.066l1.558 2.62-1.115 3.222-8.039 14.802a2.205 2.205 0 0 0 .478 2.727l16.06 14.226c.76.681 1.93.734 2.761.15l15.828-11.269zm27.266 37.73a12.91 12.91 0 0 1-12.402-9.26l-3.683-12.35a84.505 84.505 0 0 1-10.17-3.665l-10.616 7.56c-4.957 3.515-11.56 3.152-16.102-.858l-16.059-14.226c-4.54-4.028-5.692-10.56-2.789-15.89l6.604-12.164a81.62 81.62 0 0 1-4.205-8.764l-13.765-2.337c-5.967-1.027-10.384-5.949-10.747-11.996l-1.302-21.396a12.896 12.896 0 0 1 9.251-13.199l13.748-4.08c.956-3.357 1.921-6.154 2.984-8.739l-8.295-11.668a12.89 12.89 0 0 1 .86-16.094l14.233-16.067c4.028-4.506 10.553-5.666 15.855-2.815l12.385 6.71a69.205 69.205 0 0 1 8.003-4.046l.584-.239 2.328-13.739c1.001-5.958 5.932-10.393 11.978-10.773l21.414-1.293c6.1-.416 11.464 3.435 13.2 9.233l3.762 12.633c3.56.93 6.94 2.045 10.136 3.346l10.57-7.524c4.95-3.497 11.57-3.16 16.103.858l16.076 14.235a12.896 12.896 0 0 1 2.798 15.864l-5.825 10.783a85.384 85.384 0 0 1 5.258 10.481l11.907 2.018a12.903 12.903 0 0 1 10.756 11.987l1.292 21.405a12.921 12.921 0 0 1-9.233 13.208l-11.252 3.347a82.925 82.925 0 0 1-3.975 11.58l6.782 9.551a12.892 12.892 0 0 1-.859 16.094l-14.235 16.067c-4.046 4.55-10.57 5.692-15.873 2.798l-10.579-5.737c-3.665 2.098-7.153 3.754-10.694 5.135l-2.009 11.933c-1.027 5.984-5.958 10.41-12.004 10.773l-21.397 1.293c-.265.018-.53.026-.797.026zm6.843 157.69c-27.903 0-50.6-22.699-50.6-50.603 0-27.894 22.697-50.592 50.6-50.592h289.24c27.904 0 50.602 22.698 50.602 50.592 0 27.904-22.698 50.602-50.602 50.602h-289.24zm0-90.466c-21.98 0-39.872 17.882-39.872 39.863 0 21.981 17.891 39.872 39.872 39.872h289.24c21.99 0 39.872-17.89 39.872-39.872 0-21.98-17.882-39.863-39.872-39.863h-289.24zm20.946 79.805h10.729v-79.735h-10.729v79.735zm78.876 0h10.729v-79.735h-10.729v79.735zm78.868 0h10.729v-79.735h-10.729v79.735zm78.876 0h10.729v-79.735h-10.729v79.735z"></path><path d="M53.723 569.042c-7.504-.102-11.859-.478-17.952-1.87-11.632-2.65-19.144-10.126-21.596-22.06C11 529.663 11 512.711 11 501.906c0-10.8 0-28.577 3.175-43.2 2.585-11.905 9.964-19.408 21.596-22.06 5.414-1.234 11.434-1.668 17.963-1.82-.19.73-.366 1.474-.53 2.23-4.766 21.95-4.766 48.636-4.766 64.85 0 16.218 0 41.666 4.766 64.854.159.773.332 1.533.519 2.28zm51.222 32.566c-2.997-.41-5.986-.97-9.322-1.732-17.461-3.977-28.737-15.199-32.419-33.115-4.766-23.188-4.766-48.636-4.766-64.855 0-16.213 0-42.899 4.766-64.85 3.881-17.872 14.958-29.135 32.419-33.118 3.949-.9 8.113-1.516 12.475-1.938-4.349 35.93-4.349 75.655-4.349 118.897 0 28.367 0 55.345 1.196 80.711zm760.446-32.566c7.503-.102 11.858-.478 17.952-1.87 11.632-2.65 19.144-10.126 21.596-22.06 3.175-15.448 3.175-32.4 3.175-43.205 0-10.8 0-28.577-3.175-43.2-2.585-11.905-9.964-19.408-21.596-22.06-5.414-1.234-11.434-1.668-17.964-1.82.19.73.367 1.474.53 2.23 4.767 21.95 4.767 48.636 4.767 64.85 0 16.218 0 41.666-4.766 64.854a55.313 55.313 0 0 1-.519 2.28zm-51.223 32.566c2.998-.41 5.987-.97 9.323-1.732 17.46-3.977 28.737-15.199 32.419-33.115 4.766-23.188 4.766-48.636 4.766-64.855 0-16.213 0-42.899-4.766-64.85-3.881-17.872-14.958-29.135-32.42-33.118-3.948-.9-8.112-1.516-12.474-1.938 4.349 35.93 4.349 75.655 4.349 118.897 0 28.367 0 55.345-1.197 80.711z"></path></g></svg></svg>